<svg width="10" height="10" viewBox="0 0 10 10" fill="none" xmlns="http://www.w3.org/2000/svg">
<path d="M5 0.000972338C2.29775 -0.0523037 0.0616992 2.09038 0 4.79217C0.0034794 5.47174 0.15428 6.14248 0.442009 6.75817C0.729738 7.37385 1.14755 7.91983 1.66666 8.35848V9.79168C1.66666 9.90673 1.75994 10 1.875 10C1.91404 10 1.9523 9.98903 1.98541 9.96834L3.14666 9.243C3.7383 9.46927 4.36656 9.58465 5 9.58338C7.70225 9.63666 9.9383 7.49397 10 4.79219C9.9383 2.09038 7.70225 -0.0523037 5 0.000972338Z" fill="#ED2956"/>
<path fill-rule="evenodd" clip-rule="evenodd" d="M3.14666 9.243C2.5 9.01316 2.17537 8.81914 1.66666 8.35848V9.79168C1.66666 9.90673 1.75994 10 1.875 10C1.91404 10 1.9523 9.98903 1.98541 9.96834L3.14666 9.243Z" fill="#ED2956"/>
</svg>
